<?xml version="1.0" standalone="no"?>
<svg xmlns="http://www.w3.org/2000/svg" viewBox="0 0 110.712 127.84" width="110.712" height="127.84"><polygon fill="none" stroke="#08232B" stroke-width="3" points="109.212,32.71 109.212,95.13 55.356,126.34 1.5,95.13 1.5,32.71 55.356,1.5"></polygon><g fill="#08232B" color="#08232B" transform="translate(33.356 27.826) scale(1)"><svg width="44.0" height="44.0" x="0.0" y="0.0" viewBox="0 0 44 44"><path fill="currentColor" fill-rule="evenodd" d="M21.973 29.756l14.787 8.535-9.168 5.28-5.605-3.224-5.563 3.225-9.182-5.281 14.73-8.535zm0-15.005L44 27.454v6.492l-3.52 2.07-18.506-10.675L3.525 36.016l-3.52-2.042v-6.52L21.973 14.75zM21.97 0l22.026 12.689v10.576L21.984 10.591 0 23.294V12.703L21.97 0z"></path></svg></g><path fill="#08232B" fill-rule="nonzero" d="M9.77 19.63L9.77 19.63Q11.14 19.63 11.52 19.12Q11.90 18.62 11.90 17.42L11.90 17.42L11.90 11.98L10.11 11.98L10.11 11.37L18.17 11.37L18.17 11.98L17.08 11.98L17.08 19.88L16.66 19.88Q16.16 19.18 15.23 19.18L15.23 19.18Q14.84 19.18 12.89 19.68Q10.95 20.19 9.58 20.19L9.58 20.19Q5.01 20.19 2.51 17.72Q0 15.26 0 10.32Q0 5.38 2.62 2.69Q5.24 0 9.66 0L9.66 0Q11.37 0 13.09 0.43Q14.81 0.87 15.09 0.87Q15.37 0.87 15.51 0.74Q15.65 0.62 15.82 0.31L15.82 0.31L16.13 0.31L16.35 6.38L15.85 6.38Q14.48 3.67 13.09 2.11Q11.70 0.56 10.00 0.56L10.00 0.56Q5.71 0.56 5.71 8.93L5.71 8.93L5.71 11.14Q5.71 15.34 6.76 17.49Q7.81 19.63 9.77 19.63ZM29.93 0.56L29.93 0.56Q25.59 0.56 25.59 8.93L25.59 8.93L25.59 11.14Q25.59 15.12 26.74 17.37Q27.89 19.63 30.13 19.63L30.13 19.63Q33.21 19.63 35.78 13.64L35.78 13.64L36.29 13.64L36.09 19.88L35.78 19.88Q35.62 19.57 35.48 19.45Q35.34 19.32 35.07 19.32Q34.80 19.32 33.04 19.75Q31.28 20.19 29.46 20.19L29.46 20.19Q24.89 20.19 22.39 17.72Q19.88 15.26 19.88 10.32Q19.88 5.38 22.50 2.69Q25.12 0 29.54 0L29.54 0Q31.25 0 32.89 0.43Q34.52 0.87 34.80 0.87Q35.08 0.87 35.22 0.74Q35.36 0.62 35.53 0.31L35.53 0.31L35.84 0.31L36.06 6.38L35.56 6.38Q34.30 3.56 32.97 2.06Q31.64 0.56 29.93 0.56ZM51.24 11.26L51.24 11.26L51.24 9.18Q51.24 4.06 50.74 2.72L50.74 2.72Q50.18 1.18 49.14 0.81L49.14 0.81Q48.55 0.59 47.71 0.59Q46.87 0.59 46.27 0.81Q45.67 1.04 45.28 1.60Q44.88 2.16 44.65 2.77Q44.41 3.39 44.27 4.51L44.27 4.51Q44.10 6.13 44.10 9.30L44.10 9.30L44.10 11.31Q44.10 14.73 44.37 16.17Q44.63 17.61 45.02 18.23L45.02 18.23Q45.89 19.60 47.71 19.60L47.71 19.60Q49.92 19.60 50.58 17.74Q51.24 15.88 51.24 11.26ZM47.66 20.19Q42.98 20.19 40.67 17.65Q38.36 15.12 38.36 10.32Q38.36 5.52 40.84 2.76Q43.32 0 47.85 0Q52.39 0 54.70 2.62Q57.01 5.24 57.01 10.05Q57.01 14.87 54.67 17.53Q52.33 20.19 47.66 20.19ZM69.36 0.56L69.36 0.56Q65.02 0.56 65.02 8.93L65.02 8.93L65.02 11.14Q65.02 15.12 66.16 17.37Q67.31 19.63 69.55 19.63L69.55 19.63Q72.63 19.63 75.21 13.64L75.21 13.64L75.71 13.64L75.52 19.88L75.21 19.88Q75.04 19.57 74.90 19.45Q74.76 19.32 74.49 19.32Q74.23 19.32 72.46 19.75Q70.70 20.19 68.88 20.19L68.88 20.19Q64.32 20.19 61.81 17.72Q59.30 15.26 59.30 10.32Q59.30 5.38 61.92 2.69Q64.54 0 68.96 0L68.96 0Q70.67 0 72.31 0.43Q73.95 0.87 74.23 0.87Q74.51 0.87 74.65 0.74Q74.79 0.62 74.96 0.31L74.96 0.31L75.26 0.31L75.49 6.38L74.98 6.38Q73.72 3.56 72.39 2.06Q71.06 0.56 69.36 0.56Z" transform="translate(17.501, 79.826)"></path></svg>